<svg xmlns="http://www.w3.org/2000/svg" width="54" height="54" viewBox="0 0 28 28"><path d="M15 14c.547 0 1 .453 1 1s-.453 1-1 1-1-.453-1-1 .453-1 1-1zm4.688 1l7.922 6.219a.975.975 0 01.391.875c-.047.344-.25.641-.547.797l-2 1a.927.927 0 01-.453.109c-.172 0-.344-.047-.484-.125l-10.781-6.047-1.719 1.031c-.063.031-.125.063-.187.078.141.484.203 1 .156 1.516-.141 1.609-1.219 3.141-2.938 4.234C7.72 25.531 6.189 26 4.72 26c-1.406 0-2.594-.422-3.469-1.219a3.92 3.92 0 01-1.234-3.234c.141-1.594 1.219-3.141 2.922-4.234C4.267 16.469 5.814 16 7.283 16c.875 0 1.672.172 2.359.484a1.2 1.2 0 01.344-.344l1.906-1.141-1.906-1.141a1.2 1.2 0 01-.344-.344c-.688.313-1.484.484-2.359.484-1.469 0-3.016-.469-4.344-1.313C1.236 11.591.158 10.044.017 8.451a3.877 3.877 0 011.234-3.219c.875-.812 2.063-1.234 3.469-1.234 1.469 0 3 .469 4.328 1.313 1.719 1.078 2.797 2.625 2.938 4.234a4.127 4.127 0 01-.156 1.516.964.964 0 01.187.078l1.719 1.031 10.781-6.047c.141-.078.313-.125.484-.125.156 0 .313.031.453.109l2 1c.297.156.5.453.547.797a.972.972 0 01-.391.875zM9.047 10.938c.953-.875.359-2.453-1.328-3.516-.953-.609-2.063-.922-3-.922-.719 0-1.359.187-1.766.562-.953.875-.359 2.453 1.328 3.516.953.609 2.047.922 3 .922.719 0 1.359-.187 1.766-.562zm-1.328 11.64c1.687-1.062 2.281-2.641 1.328-3.516C8.641 18.687 8 18.5 7.281 18.5c-.953 0-2.047.313-3 .922C2.594 20.484 2 22.063 2.953 22.938c.406.375 1.047.562 1.766.562.938 0 2.047-.313 3-.922zM10.5 13l1.5.906v-.172c0-.359.203-.688.516-.875l.219-.125L11.501 12l-.406.406c-.125.125-.219.25-.344.359-.047.047-.078.063-.109.094zm3.5 3.5l1.5.5L27 8l-2-1-12 6.734V15.5L10.5 17l.141.125c.031.047.063.063.109.094.125.125.219.25.344.375L11.5 18zM25 23l2-1-8.125-6.375-2.766 2.156c-.047.063-.125.078-.203.109z"/></svg>